<?xml version="1.0" standalone="no"?><!DOCTYPE svg PUBLIC "-//W3C//DTD SVG 1.1//EN" "http://www.w3.org/Graphics/SVG/1.1/DTD/svg11.dtd"><svg t="1561009596477" class="icon" style="" viewBox="0 0 1024 1024" version="1.1" xmlns="http://www.w3.org/2000/svg" p-id="9866" xmlns:xlink="http://www.w3.org/1999/xlink" width="128" height="128"><defs><style type="text/css"></style></defs><path d="M216.928012 729.060579a216.928012 216.928012 0 1 1 217.187186-216.928012 217.187186 217.187186 0 0 1-217.187186 216.928012z m0-356.104048a139.176037 139.176037 0 1 0 139.43521 139.176036 139.43521 139.43521 0 0 0-139.43521-139.176036zM806.806335 434.380591a217.187186 217.187186 0 1 1 216.928012-217.187185 217.446359 217.446359 0 0 1-216.928012 217.187185z m0-356.363222a139.43521 139.43521 0 1 0 139.176037 139.176037A139.43521 139.43521 0 0 0 806.806335 78.017369zM806.806335 1023.999741a217.187186 217.187186 0 1 1 216.928012-216.928013 217.446359 217.446359 0 0 1-216.928012 216.928013z m0-356.363222a139.43521 139.43521 0 1 0 139.176037 139.435209 139.43521 139.43521 0 0 0-139.176037-139.435209z" p-id="9867"></path><path d="M647.933131 766.122355a42.24524 42.24524 0 0 1-17.364608-3.887599l-271.613568-135.806785a38.875988 38.875988 0 0 1 34.729216-69.458431l271.354395 135.547611a38.875988 38.875988 0 0 1-17.105435 73.605204zM376.319563 471.442366a38.875988 38.875988 0 0 1-17.364608-73.605203l271.095222-135.806785a38.875988 38.875988 0 0 1 34.729216 69.717605L393.684171 466.777248a38.098468 38.098468 0 0 1-17.364608 4.665118z" p-id="9868"></path></svg>