<?xml version="1.0" standalone="no"?><!DOCTYPE svg PUBLIC "-//W3C//DTD SVG 1.1//EN" "http://www.w3.org/Graphics/SVG/1.1/DTD/svg11.dtd"><svg t="1563502224438" class="icon" viewBox="0 0 1024 1024" version="1.1" xmlns="http://www.w3.org/2000/svg" p-id="1989" xmlns:xlink="http://www.w3.org/1999/xlink" width="200" height="200"><defs><style type="text/css"></style></defs><path d="M512 938.666667c-29.866667 0-59.733333-2.133333-89.6-8.533334-8.533333-2.133333-14.933333-8.533333-17.066667-17.066666l-14.933333-102.4c-2.133333 0-4.266667-2.133333-6.4-2.133334l-83.2 61.866667c-6.4 6.4-17.066667 6.4-23.466667 0-49.066667-32-93.866667-74.666667-125.866666-125.866667-4.266667-8.533333-4.266667-17.066667 0-23.466666l61.866666-83.2c0-2.133333-2.133333-4.266667-2.133333-6.4l-102.4-14.933334c-8.533333-2.133333-17.066667-8.533333-17.066667-17.066666-4.266667-27.733333-6.4-57.6-6.4-87.466667s2.133333-59.733333 8.533334-89.6c2.133333-8.533333 8.533333-14.933333 17.066666-17.066667l102.4-14.933333c0-2.133333 2.133333-4.266667 2.133334-6.4l-61.866667-83.2c-6.4-6.4-6.4-17.066667 0-23.466667 32-49.066667 74.666667-93.866667 125.866667-125.866666 8.533333-4.266667 17.066667-4.266667 23.466666 0l83.2 61.866666c2.133333 0 4.266667-2.133333 6.4-2.133333l14.933334-102.4c2.133333-8.533333 8.533333-17.066667 17.066666-17.066667 59.733333-12.8 117.333333-12.8 177.066667 0 8.533333 2.133333 14.933333 8.533333 17.066667 17.066667l14.933333 102.4c2.133333 0 4.266667 2.133333 6.4 2.133333l83.2-61.866666c6.4-6.4 17.066667-6.4 23.466667 0 49.066667 32 93.866667 74.666667 125.866666 125.866666 4.266667 8.533333 4.266667 17.066667 0 23.466667L810.666667 384c0 2.133333 2.133333 4.266667 2.133333 6.4l102.4 14.933333c8.533333 2.133333 17.066667 8.533333 17.066667 17.066667 6.4 29.866667 8.533333 59.733333 8.533333 89.6s-2.133333 59.733333-8.533333 89.6c-2.133333 8.533333-8.533333 14.933333-17.066667 17.066667l-102.4 14.933333c0 2.133333-2.133333 4.266667-2.133333 6.4l61.866666 83.2c6.4 6.4 6.4 17.066667 0 23.466667-32 49.066667-74.666667 93.866667-125.866666 125.866666-8.533333 4.266667-17.066667 4.266667-23.466667 0L640 810.666667c-2.133333 0-4.266667 2.133333-6.4 2.133333l-14.933333 102.4c-2.133333 8.533333-8.533333 17.066667-17.066667 17.066667-29.866667 4.266667-59.733333 6.4-89.6 6.4z m-66.133333-49.066667c44.8 6.4 87.466667 6.4 130.133333 0l14.933333-100.266667c2.133333-8.533333 6.4-14.933333 14.933334-17.066666 8.533333-2.133333 17.066667-6.4 25.6-10.666667 6.4-4.266667 14.933333-2.133333 21.333333 2.133333l81.066667 59.733334c36.266667-25.6 66.133333-55.466667 91.733333-91.733334l-59.733333-81.066666c-4.266667-6.4-6.4-14.933333-2.133334-21.333334 4.266667-8.533333 8.533333-17.066667 10.666667-25.6 2.133333-8.533333 8.533333-12.8 17.066667-14.933333l100.266666-14.933333c4.266667-21.333333 6.4-42.666667 6.4-66.133334s-2.133333-42.666667-6.4-66.133333l-100.266666-14.933333c-8.533333-2.133333-14.933333-6.4-17.066667-14.933334-2.133333-8.533333-6.4-17.066667-10.666667-25.6-4.266667-6.4-2.133333-14.933333 2.133334-21.333333l59.733333-81.066667c-25.6-36.266667-55.466667-66.133333-91.733333-91.733333l-81.066667 59.733333c-6.4 4.266667-14.933333 6.4-21.333333 2.133334-8.533333-4.266667-17.066667-8.533333-25.6-10.666667-8.533333-2.133333-12.8-8.533333-14.933334-17.066667L576 125.866667c-44.8-6.4-87.466667-6.4-130.133333 0l-14.933334 100.266666c-2.133333 8.533333-6.4 14.933333-14.933333 17.066667-8.533333 2.133333-17.066667 6.4-25.6 10.666667-6.4 4.266667-14.933333 2.133333-21.333333-2.133334L288 192c-36.266667 25.6-66.133333 55.466667-91.733333 91.733333l59.733333 81.066667c4.266667 6.4 6.4 14.933333 2.133333 21.333333-4.266667 8.533333-8.533333 17.066667-10.666666 25.6-2.133333 8.533333-8.533333 12.8-17.066667 14.933334l-100.266667 14.933333C130.133333 469.333333 128 490.666667 128 512s2.133333 42.666667 6.4 66.133333l100.266667 14.933334c8.533333 2.133333 14.933333 6.4 17.066666 14.933333 2.133333 8.533333 6.4 17.066667 10.666667 25.6 4.266667 6.4 2.133333 14.933333-2.133333 21.333333l-59.733334 81.066667c25.6 36.266667 55.466667 66.133333 91.733334 91.733333l81.066666-59.733333c6.4-4.266667 14.933333-6.4 21.333334-2.133333 8.533333 4.266667 17.066667 8.533333 25.6 10.666666 8.533333 2.133333 12.8 8.533333 14.933333 17.066667l10.666667 96z" p-id="1990"></path><path d="M512 704c-106.666667 0-192-85.333333-192-192s85.333333-192 192-192 192 85.333333 192 192-85.333333 192-192 192z m0-341.333333c-83.2 0-149.333333 66.133333-149.333333 149.333333s66.133333 149.333333 149.333333 149.333333 149.333333-66.133333 149.333333-149.333333-66.133333-149.333333-149.333333-149.333333z" p-id="1991"></path></svg>