<?xml version="1.0" encoding="utf-8"?>
<!-- Generator: Adobe Illustrator 16.0.0, SVG Export Plug-In . SVG Version: 6.00 Build 0)  -->
<!DOCTYPE svg PUBLIC "-//W3C//DTD SVG 1.1//EN" "http://www.w3.org/Graphics/SVG/1.1/DTD/svg11.dtd">
<svg version="1.1" id="图层_1" xmlns="http://www.w3.org/2000/svg" xmlns:xlink="http://www.w3.org/1999/xlink" x="0px" y="0px"
	 width="128px" height="128px" viewBox="0 0 128 128" style="enable-background:new 0 0 128 128;" xml:space="preserve">
<path d="M111.134,107.438l-14.098,7.156l-2.801-5.486c0.029-0.029,0.057-0.058,0.071-0.085
	c0.042-0.044,0.085-0.1,0.127-0.143c0.113-0.126,0.241-0.254,0.354-0.396c0.044-0.056,0.1-0.112,0.141-0.168l0.34-0.425
	c0.029-0.044,0.07-0.085,0.1-0.127c0.142-0.185,0.282-0.383,0.41-0.565c0.028-0.029,0.043-0.07,0.07-0.1
	c0.113-0.156,0.212-0.312,0.312-0.48c0.042-0.071,0.086-0.127,0.127-0.197c0.085-0.143,0.156-0.271,0.241-0.411
	c0.041-0.071,0.084-0.142,0.113-0.212c0.085-0.155,0.169-0.311,0.24-0.468c0.027-0.056,0.057-0.099,0.083-0.155
	c0.1-0.197,0.199-0.409,0.284-0.607l0.085-0.212c0.056-0.142,0.113-0.282,0.17-0.439c0.027-0.084,0.07-0.169,0.098-0.253
	c0.059-0.143,0.1-0.271,0.143-0.411l0.084-0.255c0.057-0.17,0.1-0.324,0.155-0.495c0.029-0.07,0.043-0.155,0.058-0.226
	c0.056-0.184,0.1-0.382,0.141-0.566c0.015-0.084,0.043-0.183,0.057-0.268c0.028-0.127,0.058-0.27,0.085-0.41
	c0.015-0.1,0.029-0.197,0.056-0.297c0.029-0.142,0.044-0.27,0.059-0.41c0.014-0.1,0.027-0.185,0.041-0.282
	c0.029-0.213,0.043-0.41,0.057-0.622c0-0.085,0.015-0.156,0.015-0.241c0.015-0.155,0.015-0.312,0.028-0.466v-0.283v-0.411v-0.296
	c0-0.156-0.014-0.297-0.028-0.453c0-0.085-0.015-0.155-0.015-0.241c-0.014-0.225-0.042-0.451-0.07-0.664
	c-0.014-0.07-0.014-0.142-0.027-0.212c-0.029-0.17-0.044-0.326-0.07-0.495l-0.044-0.255c-0.027-0.154-0.057-0.31-0.099-0.466
	c-0.014-0.071-0.028-0.155-0.058-0.228c-0.041-0.197-0.099-0.396-0.154-0.607c-0.015-0.027-0.015-0.056-0.029-0.085
	c-0.07-0.24-0.141-0.466-0.212-0.707c-0.014-0.041-0.027-0.1-0.041-0.141c-0.07-0.185-0.129-0.383-0.199-0.566
	c-0.027-0.056-0.042-0.112-0.071-0.17c-0.07-0.197-0.154-0.396-0.239-0.578c-0.015-0.029-0.028-0.071-0.043-0.1
	c-0.099-0.241-0.213-0.467-0.339-0.693c-0.112-0.24-0.24-0.467-0.382-0.692c-0.014-0.028-0.028-0.058-0.057-0.085l-0.34-0.551
	l-0.085-0.129c-0.113-0.183-0.239-0.354-0.366-0.537c-0.015-0.029-0.044-0.056-0.059-0.085c-0.154-0.212-0.296-0.41-0.451-0.607
	l-0.028-0.029c-0.143-0.169-0.283-0.353-0.439-0.522c-0.041-0.057-0.084-0.1-0.141-0.155c-0.113-0.127-0.24-0.256-0.354-0.382
	c-0.056-0.058-0.098-0.113-0.154-0.156c-0.128-0.127-0.255-0.254-0.396-0.381c-0.042-0.044-0.085-0.085-0.127-0.114
	c-0.17-0.154-0.34-0.311-0.51-0.451c-0.056-0.057-0.112-0.1-0.183-0.142c-0.114-0.1-0.241-0.198-0.354-0.283
	c-0.07-0.057-0.155-0.113-0.24-0.185c-0.112-0.083-0.212-0.155-0.325-0.239l-0.255-0.17c-0.112-0.085-0.239-0.156-0.354-0.227
	c-0.127-0.084-0.254-0.154-0.381-0.24c-0.127-0.07-0.256-0.155-0.382-0.226c-0.099-0.058-0.212-0.113-0.311-0.171
	c-0.1-0.057-0.199-0.099-0.284-0.154l-0.339-0.171c-0.084-0.042-0.184-0.085-0.27-0.127c-0.111-0.057-0.226-0.099-0.353-0.156
	c-0.07-0.027-0.156-0.056-0.227-0.099c-0.239-0.099-0.48-0.184-0.721-0.269c-0.07-0.028-0.141-0.057-0.226-0.085
	c-0.128-0.042-0.27-0.084-0.397-0.127c-0.084-0.028-0.154-0.043-0.239-0.07c-0.128-0.043-0.269-0.071-0.396-0.113
	c-0.071-0.015-0.155-0.043-0.226-0.057c-0.467-0.113-0.948-0.211-1.429-0.283c-0.07-0.014-0.155-0.028-0.227-0.028
	c-0.142-0.014-0.283-0.028-0.41-0.042c-0.085-0.014-0.17-0.014-0.255-0.028c-0.142-0.015-0.269-0.029-0.41-0.029
	c-0.085,0-0.169-0.013-0.253-0.013c-0.256-0.015-0.51-0.015-0.779-0.015h-0.24c-0.127,0-0.254,0.015-0.382,0.015
	c-0.113,0-0.212,0.013-0.325,0.013c-0.127,0.015-0.24,0.015-0.368,0.029c-0.112,0.015-0.226,0.015-0.353,0.028l-0.34,0.042
	c-0.028,0-0.043,0-0.07,0.015l-10.38-20.35l0.042-0.042c0.085-0.084,0.155-0.169,0.241-0.254c0.085-0.085,0.155-0.17,0.24-0.269
	c0.071-0.084,0.142-0.169,0.226-0.255c0.085-0.099,0.155-0.198,0.241-0.296c0.07-0.085,0.126-0.156,0.198-0.24
	c0.126-0.17,0.254-0.34,0.382-0.524c0.056-0.07,0.098-0.141,0.141-0.226c0.086-0.113,0.156-0.24,0.24-0.354
	c0.058-0.085,0.1-0.17,0.156-0.255c0.07-0.113,0.141-0.227,0.197-0.354c0.043-0.085,0.1-0.169,0.142-0.254
	c0.07-0.142,0.142-0.269,0.212-0.41c0.029-0.071,0.07-0.128,0.1-0.198c0.099-0.198,0.183-0.396,0.282-0.594l0.085-0.212l0.17-0.425
	c0.028-0.084,0.057-0.169,0.1-0.254c0.056-0.141,0.099-0.283,0.141-0.424c0.028-0.085,0.057-0.155,0.086-0.241l0.169-0.551
	c0.014-0.042,0.028-0.07,0.028-0.113c0.056-0.212,0.112-0.439,0.155-0.651c0.015-0.07,0.028-0.155,0.043-0.226
	c0.027-0.156,0.056-0.297,0.085-0.452l0.041-0.255c0.029-0.156,0.044-0.297,0.071-0.452c0.015-0.071,0.028-0.156,0.028-0.227
	c0.028-0.226,0.042-0.438,0.071-0.665c0-0.056,0-0.099,0.015-0.156c0.014-0.169,0.026-0.354,0.026-0.537v-0.269v-0.438v-0.283
	c0-0.155-0.013-0.297-0.013-0.453c0-0.084-0.014-0.169-0.014-0.254c-0.015-0.226-0.044-0.438-0.058-0.665
	c-0.014-0.084-0.028-0.17-0.042-0.269c-0.015-0.142-0.042-0.283-0.057-0.424c-0.015-0.099-0.042-0.212-0.057-0.311
	c-0.028-0.128-0.043-0.254-0.071-0.382c-0.027-0.113-0.042-0.212-0.07-0.325c-0.028-0.128-0.07-0.269-0.1-0.396
	c-0.027-0.127-0.07-0.254-0.098-0.396c-0.058-0.169-0.1-0.354-0.155-0.522c-0.044-0.113-0.071-0.227-0.114-0.34l-0.127-0.339
	c-0.043-0.113-0.085-0.24-0.143-0.354c-0.041-0.099-0.084-0.212-0.126-0.311c-0.057-0.113-0.1-0.24-0.156-0.354
	c-0.041-0.099-0.099-0.212-0.155-0.311c-0.057-0.1-0.099-0.212-0.155-0.311s-0.114-0.198-0.155-0.297
	c-0.057-0.099-0.114-0.211-0.171-0.311c-0.056-0.113-0.126-0.212-0.197-0.326c-0.057-0.099-0.127-0.198-0.184-0.297
	c-0.07-0.099-0.128-0.212-0.198-0.311c-0.071-0.099-0.142-0.198-0.213-0.311c-0.07-0.099-0.126-0.184-0.197-0.283
	c-0.128-0.17-0.254-0.34-0.381-0.495c-0.07-0.085-0.129-0.169-0.199-0.24c-0.084-0.113-0.184-0.212-0.268-0.325
	c-0.072-0.085-0.143-0.156-0.213-0.24c-0.085-0.1-0.183-0.199-0.269-0.283c-0.07-0.07-0.142-0.156-0.213-0.226
	c-0.099-0.099-0.211-0.198-0.311-0.311l-0.184-0.185c-0.155-0.156-0.324-0.297-0.495-0.438c-0.07-0.057-0.126-0.113-0.198-0.17
	c-0.113-0.099-0.227-0.184-0.338-0.283c-0.071-0.056-0.156-0.113-0.227-0.17c-0.114-0.084-0.227-0.169-0.34-0.24
	c-0.07-0.057-0.155-0.113-0.227-0.156c-0.141-0.099-0.283-0.184-0.424-0.282c-0.057-0.029-0.099-0.071-0.156-0.099
	c-0.183-0.113-0.382-0.227-0.579-0.339c-0.071-0.042-0.156-0.085-0.228-0.127c-0.127-0.071-0.253-0.141-0.396-0.198L65.7,37.086
	c-0.129-0.056-0.271-0.126-0.397-0.183c-0.085-0.028-0.155-0.071-0.239-0.1c-0.199-0.084-0.396-0.169-0.609-0.24
	c-0.057-0.014-0.099-0.042-0.155-0.057c-0.17-0.057-0.339-0.128-0.509-0.184l-0.255-0.085c-0.142-0.042-0.282-0.084-0.41-0.127
	c-0.085-0.028-0.17-0.042-0.268-0.071c-0.142-0.042-0.297-0.071-0.439-0.113c-0.07-0.014-0.155-0.042-0.227-0.057
	c-0.212-0.042-0.438-0.085-0.65-0.127c-0.07-0.014-0.127-0.014-0.198-0.028c-0.155-0.028-0.325-0.056-0.481-0.071
	c-0.085-0.014-0.169-0.014-0.268-0.028c-0.141-0.014-0.297-0.028-0.438-0.042c-0.085-0.014-0.169-0.014-0.254-0.014
	c-0.17-0.015-0.339-0.015-0.523-0.029c-0.056,0-0.113,0-0.17-0.014H58.53c-0.071,0-0.142,0-0.212,0.014
	c-0.17,0-0.339,0.014-0.495,0.029c-0.085,0-0.156,0.014-0.24,0.014c-0.17,0.014-0.326,0.028-0.496,0.042
	c-0.07,0.014-0.141,0.014-0.211,0.028c-0.029,0-0.071,0.015-0.099,0.015l-2.8-5.487l9.333-4.751c0.014,0,0.014-0.014,0.028-0.014
	c0.015,0,0.028-0.014,0.028-0.014l4.68-2.39c2.589-1.315,5.771-0.283,7.085,2.305l38.281,75.004
	C114.754,102.957,113.723,106.124,111.134,107.438z M78.073,100.637c-1.316-2.588-0.298-5.755,2.304-7.07
	c0.566-0.296,1.174-0.467,1.769-0.537c1.344-0.155,2.715,0.212,3.789,1.019c0.623,0.466,1.16,1.073,1.527,1.81
	c0.439,0.849,0.607,1.754,0.566,2.63c-0.044,0.806-0.256,1.598-0.651,2.305v0.015c-0.494,0.877-1.244,1.626-2.206,2.121
	C82.569,104.242,79.402,103.225,78.073,100.637z M54.16,53.76c-1.315-2.588-0.297-5.756,2.305-7.071
	c1.244-0.637,2.63-0.721,3.875-0.354c1.344,0.396,2.531,1.316,3.21,2.659c1.329,2.587,0.297,5.755-2.305,7.07l-0.014,0.014
	C58.643,57.365,55.475,56.333,54.16,53.76z M43.017,116.419H11.383V95.377h31.619v21.042H43.017z M11.383,32.25h31.619v21.042
	H11.383V32.25z M11.383,63.813h31.619v21.043H11.383V63.813z M126.761,81.787c-1.314-2.587-4.497-3.62-7.085-2.305l-4.017,2.036
	l-4.778-9.376l4.693-2.39c2.589-1.315,3.621-4.482,2.307-7.071c-1.316-2.587-4.498-3.62-7.085-2.305l-4.696,2.39l-4.779-9.375
	l4.694-2.39c2.589-1.315,3.62-4.482,2.306-7.071c-1.315-2.588-4.497-3.62-7.085-2.305l-4.723,2.404l-4.78-9.376l4.695-2.389
	c2.587-1.315,3.62-4.483,2.305-7.07c-1.314-2.588-4.497-3.621-7.084-2.306l-4.695,2.39l-2.404-4.68
	c-3.959-7.75-13.463-10.846-21.239-6.916L58.232,3.587c-1.301-2.602-4.468-3.649-7.07-2.333c-2.602,1.301-3.648,4.469-2.347,7.057
	l5.104,10.139l-7.537,3.832c-1.061-0.354-2.191-0.551-3.38-0.551v-5.261c0-2.898-2.361-5.261-5.275-5.261
	c-2.913,0-5.274,2.362-5.274,5.261v5.261H21.918v-5.261c0-2.898-2.362-5.261-5.275-5.261s-5.274,2.362-5.274,5.261v5.261
	c-5.826,0-10.535,4.709-10.535,10.521v89.429c0,2.898,2.361,5.26,5.275,5.26h42.168c2.913,0,5.274-2.361,5.274-5.26V66.231
	c2.333,0.834,4.864,1.117,7.368,0.778l10.393,20.363c-4.482,4.708-5.754,11.906-2.63,18.03c3.125,6.122,9.701,9.332,16.163,8.484
	l5.189,10.181c1.316,2.587,4.497,3.62,7.085,2.305l18.794-9.545c7.777-3.959,10.874-13.462,6.916-21.225l-2.392-4.695l4.018-2.036
	C127.043,87.543,128.075,84.375,126.761,81.787z"/>
</svg>
