<?xml version="1.0" encoding="utf-8"?>
<!-- Generator: Adobe Illustrator 16.0.0, SVG Export Plug-In . SVG Version: 6.00 Build 0)  -->
<!DOCTYPE svg PUBLIC "-//W3C//DTD SVG 1.1//EN" "http://www.w3.org/Graphics/SVG/1.1/DTD/svg11.dtd">
<svg version="1.1" id="图层_1" xmlns="http://www.w3.org/2000/svg" xmlns:xlink="http://www.w3.org/1999/xlink" x="0px" y="0px"
	 width="128px" height="128px" viewBox="0 0 128 128" enable-background="new 0 0 128 128" xml:space="preserve">
<path d="M103.432,49.657h-3.556V35.126c0-18.562-15.104-33.664-33.667-33.664c-18.559,0-33.661,15.102-33.661,33.664
	v14.53h-3.557c-8.065,0-14.625,6.561-14.625,14.627v49.089c0,8.064,6.561,14.627,14.625,14.627h74.44
	c8.065,0,14.627-6.563,14.627-14.627V64.284C118.059,56.218,111.497,49.657,103.432,49.657L103.432,49.657z M42.299,35.126
	c0-13.186,10.727-23.913,23.91-23.913c13.188,0,23.916,10.726,23.916,23.913v14.531H42.299L42.299,35.126L42.299,35.126z
	 M108.309,113.373c0,2.688-2.187,4.875-4.877,4.875h-74.44c-2.689,0-4.875-2.187-4.875-4.875V64.284
	c0-2.688,2.186-4.876,4.875-4.876h74.44c2.69,0,4.877,2.188,4.877,4.876V113.373z M55.53,88.829c0,5.899,4.782,10.682,10.682,10.682
	c5.898,0,10.682-4.782,10.682-10.682c0-5.901-4.782-10.684-10.682-10.684S55.53,82.928,55.53,88.829z"/>
</svg>
