<?xml version="1.0" standalone="no"?><!DOCTYPE svg PUBLIC "-//W3C//DTD SVG 1.1//EN" "http://www.w3.org/Graphics/SVG/1.1/DTD/svg11.dtd"><svg t="1600139987727" class="icon" viewBox="0 0 1024 1024" version="1.1" xmlns="http://www.w3.org/2000/svg" p-id="2964" xmlns:xlink="http://www.w3.org/1999/xlink" width="64" height="64"><defs><style type="text/css"></style></defs><path d="M899.300557 382.7712a194.43712 194.43712 0 0 1-11.8784 31.70304h0.16384l-0.73728 1.2288c-34.52928 76.67712-124.76416 227.00032-124.76416 227.00032s-0.12288-0.36864-0.49152-0.90112l-26.37824 47.5136h127.13984L619.584717 1024l55.0912-227.65568H574.610637l34.73408-150.528c-28.09856 7.04512-61.31712 16.71168-100.67968 29.81888 0 0-53.248 32.3584-153.3952-62.17728 0 0-67.54304-61.6448-28.34432-77.08672 16.62976-6.5536 80.81408-14.86848 131.31776-21.95456 68.28032-9.50272 110.30528-14.62272 110.30528-14.62272s-210.5344 3.2768-260.42368-4.87424c-49.93024-8.11008-113.2544-94.49472-126.73024-170.3936 0 0-20.8896-41.65632 44.89216-21.95456 65.7408 19.74272 337.79712 76.84096 337.79712 76.84096S210.230477 266.93632 186.678477 239.49312C163.167437 212.04992 117.415117 89.74336 123.354317 14.58176c0 0 2.58048-18.75968 21.13536-13.7216 0 0 261.61152 123.94496 440.48384 191.73376 178.87232 67.82976 334.39744 102.4 314.32704 190.17728z" fill="#00ACFF" p-id="2965"></path></svg>