<?xml version="1.0" standalone="no"?><!DOCTYPE svg PUBLIC "-//W3C//DTD SVG 1.1//EN" "http://www.w3.org/Graphics/SVG/1.1/DTD/svg11.dtd"><svg t="1570775562988" class="icon" viewBox="0 0 1118 1024" version="1.1" xmlns="http://www.w3.org/2000/svg" p-id="2484" width="139.75" height="128" xmlns:xlink="http://www.w3.org/1999/xlink"><defs><style type="text/css"></style></defs><path d="M425.488182 788.681043c0 11.974681-6.371849 23.070486-16.808497 29.002896-10.436648 5.932411-23.180345 5.932411-33.616994 0s-16.808497-17.138075-16.808496-29.002896V605.435468c0.109859-28.673318 11.205665-56.138183 31.090226-76.79176a104.542259 104.542259 0 0 1 74.92415-31.639524h192.034331c28.23388 0.109859 55.149447 11.535243 74.92415 31.639524 19.664843 20.763437 30.650789 48.338161 30.650788 76.79176v291.676859c0.109859 33.177556-12.523978 65.146658-35.484605 88.98616-22.631048 23.509924-53.831134 36.802918-86.569252 36.912778H299.589244c-38.780388 0-75.803025-15.819762-102.608733-43.724064-27.355005-28.014162-42.40575-65.805815-42.295891-105.025641V518.866216H33.619499c-9.008475 0-17.467654-3.515503-23.949362-9.997211-6.261989-6.371849-9.777492-15.050746-9.667632-24.059221-0.109859-10.876086 4.943676-21.093016 13.622572-27.794442L540.730753 8.239459c12.523978-10.985946 31.200086-10.985946 43.724064 0l521.612702 449.215321c11.095805 9.118335 15.270465 24.169081 10.436649 37.571934-4.833816 13.512713-17.467654 22.521189-31.749383 22.631048h-118.648214v411.313808c1.098595 25.377535-8.349319 49.986053-26.25641 68.112863-16.369059 17.138075-39.000107 26.585989-62.619891 26.805708h-8.678897c-9.008475-0.109859-17.467654-3.845081-23.839502-10.436649-6.261989-6.591567-9.557773-15.270465-9.228195-24.16908-0.109859-8.788757 3.295784-17.467654 9.557773-23.949362 6.261989-6.371849 14.721167-10.10707 23.619783-10.10707h8.678898c5.932411 0 11.535243-2.416908 15.490183-6.811287 4.174659-4.284519 6.591567-10.10707 6.811286-16.14934V484.809784c-0.329578-9.008475 3.185924-17.687373 9.228195-24.16908 6.261989-6.591567 14.831027-10.21693 23.839502-10.436649h60.862139L562.043488 79.318528 124.47327 450.313915h61.301577c9.008475 0.109859 17.467654 3.845081 23.839502 10.436648 6.261989 6.591567 9.557773 15.270465 9.228194 24.169081v389.012338c0 21.202875 8.349319 41.417015 23.400065 56.357901 14.281729 15.050746 34.166291 23.619783 55.039588 23.839502h340.234739c14.831027-0.109859 29.112756-6.261989 39.329685-16.918356 10.656367-10.656367 16.698637-25.157816 16.478919-40.318421V604.886171c0-10.546508-4.174659-20.763437-11.645103-28.23388-7.031005-7.580303-16.918356-11.645102-27.245145-11.645103h-190.056861c-10.436648 0-20.324 4.284519-27.794443 11.645103-7.250724 7.580303-11.205665 17.687373-11.205664 28.23388v183.794872h0.109859z m0 0" fill="" p-id="2485"></path></svg>