<?xml version="1.0" standalone="no"?><!DOCTYPE svg PUBLIC "-//W3C//DTD SVG 1.1//EN" "http://www.w3.org/Graphics/SVG/1.1/DTD/svg11.dtd"><svg t="1560906780383" class="icon" style="" viewBox="0 0 1024 1024" version="1.1" xmlns="http://www.w3.org/2000/svg" p-id="2614" xmlns:xlink="http://www.w3.org/1999/xlink" width="128" height="128"><defs><style type="text/css"></style></defs><path d="M536.8 102.3c9.2 2.7 18.3 5.7 27.5 8.1C725.8 151.7 781.1 348.1 665 467.8c-5.2 5.4-10.4 10.9-14 14.8 35.5 24.9 72.5 45.8 103.4 73.6 82.2 74.1 116.7 169.5 116.1 279.2-0.5 88.3 0.3 88.3-87.1 88.3H211.5c-45.7 0-51.7-7.7-53.7-52.7-3.9-87.1 6.2-170.5 55.3-245.6 40.8-62.4 96.1-107.7 166.4-138.9-5.8-6.2-9.5-10.3-13.4-14.2-60.7-61.1-81.6-134.1-56.6-216.2 24.9-81.9 82.6-131.2 167-148.5 4.5-0.9 8.7-3.5 13.1-5.3h47.2zM229.9 850.9h566.6C805 733.4 764.2 640 666.2 577.7c-100.1-63.7-205.6-63.6-305.7 0-98 62.3-138.7 155.8-130.6 273.2z m425.6-528.7c2.1-79.3-59.1-144-138-146.1-78.2-2.1-143.9 58.6-146 134.9-2.2 82.5 59.6 148.6 140.6 150.2 75.6 1.5 141.4-62.3 143.4-139z" fill="" p-id="2615"></path><path d="M11.5 704.3c9.2-31.6 15.7-64.2 28.2-94.4C61.8 556 81.2 537 164.8 471.4c-29.9-38.1-46-80.8-42.4-130.3 5.3-73.8 52.3-134.6 122.7-156.8 26.5-8.4 46.9-1.2 54.1 19 7.5 20.9-2.9 37.3-30.6 48-73.6 28.4-99.4 107.7-53.3 167 9.9 12.7 26.6 20 37.7 32 9.8 10.6 23.1 25.1 22 36.7-1.1 11.5-16.1 26.9-28.4 31.5C132.5 561.4 85.4 627.7 85.3 749.9c0 4.9-0.1 9.8 0 14.7 0.7 21.5-0.2 42.8-25.4 50.4-25.2 7.6-37.3-10-48.4-28v-82.7zM1014.9 786.9c-10.8 18.5-23.3 35.5-48.3 28-25.1-7.5-25.2-28.9-25.8-50.4-0.7-28.4 0.5-57.6-5.8-85-18.8-81.3-70.3-133.2-149.7-159.6-14.1-4.7-31.1-20.3-33.6-33.5-2.1-10.8 12.6-29.6 24.7-37.3 39.5-25.1 60.3-58.7 56.1-105.5-4.1-45.7-30-75.1-72.2-91.7-27.3-10.7-36.9-28-28.6-48.9 8.1-20.2 28.3-26.8 54.7-17.6 104.2 36 150.5 161.2 94.7 256.7-5.9 10.1-12.6 19.6-17.7 27.6 27 23.8 55.4 45.1 79.2 70.7 37.7 40.5 58.7 90.1 66.7 145 0.9 6.4 3.7 12.6 5.6 18.9v82.6z" fill="" p-id="2616"></path></svg>