<?xml version="1.0" encoding="utf-8"?>
<!-- Generator: Adobe Illustrator 16.0.0, SVG Export Plug-In . SVG Version: 6.00 Build 0)  -->
<!DOCTYPE svg PUBLIC "-//W3C//DTD SVG 1.1//EN" "http://www.w3.org/Graphics/SVG/1.1/DTD/svg11.dtd">
<svg version="1.1" id="图层_1" xmlns="http://www.w3.org/2000/svg" xmlns:xlink="http://www.w3.org/1999/xlink" x="0px" y="0px"
	 width="128px" height="128px" viewBox="0 0 128 128" enable-background="new 0 0 128 128" xml:space="preserve">
<path d="M58,98.044c0,3.313,2.686,6,6,6c3.314,0,6-2.687,6-6s-2.686-6-6-6C60.686,92.044,58,94.73,58,98.044z"/>
<path d="M63.333,127.667C28.41,127.667,0,99.258,0,64.334S28.41,1,63.333,1c34.924,0,63.333,28.41,63.333,63.334
	S98.258,127.667,63.333,127.667z M63.333,10.088c-29.912,0-54.245,24.334-54.245,54.246c0,29.905,24.333,54.245,54.245,54.245
	c29.906,0,54.246-24.339,54.246-54.245C117.579,34.422,93.239,10.088,63.333,10.088z"/>
<path d="M64,84.212c-2.208,0-4-1.792-4-4v-6.765c0-6.543,5-11.543,9.416-15.955C72.652,54.252,76,50.908,76,48.24
	c0-6.668-5.385-12.092-12-12.092c-6.728,0-12,5.192-12,11.82c0,2.208-1.792,4-4,4s-4-1.792-4-4c0-10.928,8.972-19.82,20-19.82
	S84,37.16,84,48.24c0,5.988-4.54,10.524-8.928,14.912C71.592,66.624,68,70.216,68,73.443v6.765C68,82.416,66.208,84.212,64,84.212z"
	/>
</svg>
